<svg xmlns="http://www.w3.org/2000/svg" aria-hidden="true" style="position:absolute;width:0;height:0;overflow:hidden">
  <defs>
    <symbol id="star" viewBox="0 0 32 32">
      <path d="M14.513 1.037a1.584 1.584 0 0 1 2.973 0l3.246 8.164c.232.583.756.982 1.358 1.032l8.426.707c1.427.12 2.006 1.983.919 2.958l-6.419 5.752a1.73 1.73 0 0 0-.519 1.67l1.961 8.6c.332 1.457-1.183 2.609-2.405 1.828l-7.213-4.609a1.551 1.551 0 0 0-1.679 0l-7.214 4.609c-1.222.781-2.738-.371-2.405-1.828l1.961-8.6a1.73 1.73 0 0 0-.519-1.67l-6.42-5.752c-1.088-.975-.509-2.838.919-2.958l8.426-.707a1.617 1.617 0 0 0 1.358-1.032l3.246-8.164z"/>
    </symbol>
    <symbol id="star-outline" viewBox="0 0 32 32">
      <path stroke-width="2.667" d="M16 1.333c.05 0 .095.014.131.038.031.02.078.062.116.159l3.246 8.164a2.95 2.95 0 0 0 2.486 1.867l8.426.707a.214.214 0 0 1 .135.053.37.37 0 0 1 .105.172c.052.168.008.314-.1.411l-6.419 5.751a3.069 3.069 0 0 0-.93 2.96l1.962 8.6c.043.187-.028.32-.128.396a.256.256 0 0 1-.13.055c-.024.002-.065-.001-.13-.043l-7.213-4.608a2.884 2.884 0 0 0-3.115 0l-7.213 4.608c-.066.042-.106.045-.13.043a.247.247 0 0 1-.13-.055c-.1-.076-.17-.209-.128-.396l1.962-8.6a3.065 3.065 0 0 0-.93-2.96l-6.419-5.751c-.108-.097-.152-.244-.1-.411a.379.379 0 0 1 .105-.172.216.216 0 0 1 .135-.053l8.426-.707a2.952 2.952 0 0 0 2.486-1.867l3.246-8.164a.318.318 0 0 1 .116-.159.235.235 0 0 1 .131-.038z"/>
    </symbol>
    <symbol id="email" viewBox="0 0 32 32">
      <path d="M26.667 5.333H5.334A2.67 2.67 0 0 0 2.667 8v16a2.67 2.67 0 0 0 2.667 2.667h21.333A2.67 2.67 0 0 0 29.334 24V8a2.67 2.67 0 0 0-2.667-2.667zm0 2.667v.681L16 16.978 5.333 8.682v-.683h21.333zM5.333 24V12.059l9.848 7.66a1.327 1.327 0 0 0 1.638 0l9.848-7.66L26.67 24H5.334z"/>
    </symbol>
    <symbol id="phone" viewBox="0 0 32 32">
      <path d="M23.61 16.391a1.338 1.338 0 0 0-.942-.391 1.334 1.334 0 0 0-.942.391l-2.125 2.125c-.985-.293-2.824-.96-3.989-2.125s-1.832-3.004-2.125-3.989l2.125-2.125a1.338 1.338 0 0 0 .391-.942 1.334 1.334 0 0 0-.391-.942L10.279 3.06a1.338 1.338 0 0 0-.942-.391 1.334 1.334 0 0 0-.942.391L4.779 6.676a2.663 2.663 0 0 0-.781 1.913c.031 1.899.533 8.493 5.731 13.691s11.792 5.699 13.692 5.731h.037c.704 0 1.369-.277 1.873-.781l3.616-3.616a1.338 1.338 0 0 0 .391-.942 1.33 1.33 0 0 0-.391-.942l-5.333-5.335zm-.17 8.949c-1.664-.028-7.357-.475-11.831-4.949C7.121 15.903 6.686 10.19 6.66 8.559l2.673-2.673 3.448 3.448-1.724 1.724a1.33 1.33 0 0 0-.362 1.216c.032.153.815 3.789 3.028 6.003s5.849 2.996 6.003 3.028a1.317 1.317 0 0 0 1.216-.361l1.725-1.724 3.448 3.448-2.675 2.673z"/>
    </symbol>
    <symbol id="location" viewBox="0 0 32 32">
      <path d="M16 18.667c2.941 0 5.333-2.392 5.333-5.333S18.941 8.001 16 8.001c-2.941 0-5.333 2.392-5.333 5.333s2.392 5.333 5.333 5.333zm0-8c1.471 0 2.667 1.196 2.667 2.667S17.471 16.001 16 16.001c-1.471 0-2.667-1.196-2.667-2.667s1.196-2.667 2.667-2.667z"/>
      <path d="M15.227 29.085a1.332 1.332 0 0 0 1.546 0c.405-.287 9.932-7.165 9.893-15.752 0-5.881-4.785-10.667-10.667-10.667S5.332 7.451 5.332 13.326c-.039 8.593 9.488 15.472 9.893 15.759zM16 5.333c4.412 0 8 3.588 8 8.007.028 5.917-5.851 11.231-8 12.973-2.148-1.744-8.028-7.059-8-12.98 0-4.412 3.588-8 8-8z"/>
    </symbol>
    <symbol id="facebook" viewBox="0 0 32 32">
      <path d="M29.333 16.405C29.333 8.996 23.364 2.99 16 2.99S2.667 8.996 2.667 16.405c0 6.696 4.876 12.245 11.25 13.252v-9.374h-3.385v-3.878h3.385V13.45c0-3.362 1.991-5.219 5.036-5.219 1.459 0 2.985.262 2.985.262v3.301h-1.681c-1.656 0-2.173 1.034-2.173 2.095v2.516h3.698l-.591 3.878h-3.107v9.374c6.374-1.006 11.25-6.556 11.25-13.252z"/>
    </symbol>
    <symbol id="instagram" viewBox="0 0 32 32">
      <path d="M15.998 6.161c3.206 0 3.585.014 4.846.071 1.172.052 1.804.248 2.226.412.558.216.961.478 1.378.895.422.422.679.82.9 1.378.164.422.361 1.059.412 2.226.056 1.266.071 1.645.071 4.847s-.014 3.585-.071 4.847c-.052 1.172-.248 1.804-.412 2.227a3.702 3.702 0 0 1-.895 1.377c-.422.422-.82.679-1.378.9-.422.164-1.06.361-2.226.412-1.266.056-1.645.071-4.847.071s-3.585-.014-4.847-.071c-1.172-.052-1.804-.248-2.226-.412a3.714 3.714 0 0 1-1.378-.895 3.767 3.767 0 0 1-.9-1.378c-.164-.422-.361-1.06-.412-2.226-.056-1.266-.071-1.645-.071-4.847s.014-3.585.071-4.847c.052-1.172.248-1.804.412-2.226.216-.558.478-.961.895-1.378.422-.422.82-.679 1.378-.9.422-.164 1.059-.361 2.226-.412 1.261-.056 1.641-.071 4.847-.071h.001zm0-2.16c-3.258 0-3.665.014-4.945.071-1.275.056-2.151.262-2.91.558a5.847 5.847 0 0 0-2.127 1.387A5.883 5.883 0 0 0 4.629 8.14c-.295.764-.502 1.636-.558 2.91C4.015 12.335 4 12.742 4 15.999s.014 3.665.071 4.945c.056 1.275.262 2.151.558 2.91a5.86 5.86 0 0 0 1.387 2.127 5.876 5.876 0 0 0 2.123 1.383c.764.295 1.636.502 2.91.558 1.279.056 1.687.071 4.945.071s3.666-.014 4.945-.071c1.275-.056 2.151-.262 2.91-.558.787-.305 1.458-.717 2.123-1.383s1.078-1.336 1.383-2.123c.295-.764.502-1.635.558-2.91.056-1.279.071-1.687.071-4.945s-.014-3.665-.071-4.945c-.056-1.275-.262-2.151-.558-2.91a5.622 5.622 0 0 0-1.373-2.133 5.876 5.876 0 0 0-2.123-1.383c-.764-.295-1.635-.502-2.91-.558-1.284-.061-1.692-.075-4.949-.075L15.999 4z"/>
      <path d="M15.998 9.836a6.164 6.164 0 1 0 6.163 6.163 6.164 6.164 0 0 0-6.163-6.163zm0 10.161a3.998 3.998 0 1 1 0-7.996 3.998 3.998 0 0 1 0 7.996zM23.843 9.592a1.439 1.439 0 1 1-2.877 0 1.439 1.439 0 0 1 2.877 0z"/>
    </symbol>
    <symbol id="twitter" viewBox="0 0 32 32">
      <path d="M22.901 5.657h3.68l-8.04 9.037L28 26.991h-7.406l-5.801-7.458-6.637 7.458H4.474l8.6-9.666L4 5.657h7.594l5.243 6.817 6.064-6.817zM21.61 24.824h2.039L10.486 7.709H8.298L21.61 24.824z"/>
    </symbol>
    <symbol id="linkedIn" viewBox="0 0 32 32">
      <path d="M25.75 4H6.25A2.257 2.257 0 0 0 4 6.25v19.5A2.257 2.257 0 0 0 6.25 28h19.5A2.257 2.257 0 0 0 28 25.75V6.25A2.257 2.257 0 0 0 25.75 4zM13 23.5h-3V13h3v10.5zm-1.5-12a1.5 1.5 0 1 1-.001-2.999A1.5 1.5 0 0 1 11.5 11.5zm12 12h-3v-6a1.5 1.5 0 1 0-3 0v6h-3V13h3v1.861c.619-.848 1.565-1.861 2.625-1.861 1.866 0 3.375 1.679 3.375 3.75v6.75z"/>
    </symbol>
    <symbol id="youtube" viewBox="0 0 32 32">
      <path d="M28.791 9.604a3.345 3.345 0 0 0-2.35-2.354C24.353 6.677 16 6.667 16 6.667s-8.352-.009-10.441.539a3.416 3.416 0 0 0-2.354 2.371c-.551 2.088-.556 6.419-.556 6.419s-.005 4.352.541 6.419a3.341 3.341 0 0 0 2.351 2.353c2.109.573 10.44.583 10.44.583s8.353.009 10.441-.537a3.356 3.356 0 0 0 2.356-2.35c.552-2.087.556-6.416.556-6.416s.027-4.353-.543-6.441zM13.328 20.007l.007-8 6.943 4.007-6.949 3.993z"/>
    </symbol>
    <symbol id="menu" viewBox="0 0 32 32">
      <path d="M5.333 8h21.333v2.667H5.333V8zm0 6.667h21.333v2.667H5.333v-2.667zm0 6.666h21.333V24H5.333v-2.667z"/>
    </symbol>
    <symbol id="icon-close" viewBox="0 0 32 32">
      <path d="m21.589 8.459-5.657 5.656-5.656-5.656-1.885 1.885L14.047 16l-5.656 5.656 1.885 1.885 5.656-5.656 5.657 5.656 1.885-1.885L17.818 16l5.656-5.656-1.885-1.885z"/>
    </symbol>
    <symbol id="logo" fill="none" viewBox="0 0 160 68">
      <path fill="#000" fill-rule="evenodd" d="m35.23 21.507.026.02.261.218.21.176.93.773.001 21.595a1271 1271 0 0 1-14.94 12.148c-.318-.031-8.571-6.819-12.763-10.267l-.117-.096c-1.075-.884-1.865-1.533-2.157-1.77l-.014-21.598 14.925-12.23c.487.07 9.804 7.835 13.638 11.03m-6.445 4.412-.017-.027-.003-.005-.023-.038c-2.453-3.969-6.75-10.92-7.117-11.185l-8.66 13.8.018 9.579 1.742 2.858c.763.108 1.531.232 2.303.357 1.565.253 3.14.507 4.695.637l.94-.14 1.133-.172c1.6-.242 3.201-.484 4.805-.698l1.747-2.713-.001-9.736c-.208-.326-.79-1.269-1.562-2.517m2.21 3.676c.609.762 1.132 1.696 1.64 2.601q.218.393.436.77.108.188.217.369l-.291.475-.302.49q-.395.64-.795 1.276l-.922 1.496q-.003-1.08-.013-2.161c-.015-1.773-.03-3.549.03-5.316m-6.91-16.422c-.717-.629-1.596-1.4-2.123-1.625l.016.709c.013.557.026 1.114.03 1.67a1517 1517 0 0 0 8.323 13.277c0-.136-.007-.348-.014-.609v-.043c-.034-1.243-.094-3.503.223-3.836l.027-.026.024-.019.024-.02.28.123c.215.982.163 2.514.117 3.88l-.001.02-.003.083a38 38 0 0 0-.03 1.555c.367.615.744 1.227 1.122 1.839a89 89 0 0 1 1.92 3.213l-3.038 4.879.007 3.126v2.408l5.04.002L36.016 23a606 606 0 0 0-11.189-9.188l-.116-.095-.107-.09c-.156-.133-.333-.288-.52-.454m-2.848-1.586.072.062c.145.433.105 1.1.07 1.678-.013.212-.025.412-.027.584l-8.406 13.415q.003-.313.016-.654l.008-.207.017-.407c.043-1.014.088-2.102-.024-2.955-.032-.239-.103-.325-.288-.465l-.194.037c-.294.457-.21 3.286-.164 4.827l.013.477q.006.211.008.343a359 359 0 0 0-2.986 4.97l2.992 4.906-.013 2.806-.01 2.777-5.024-.008.02-20.761c2.992-2.582 6.079-5.073 9.162-7.562a696 696 0 0 0 4.758-3.863m-3.225 30.445c-.945-.169-1.89-.337-2.83-.413l.727 1.166c1.937 3.11 3.88 6.227 5.732 9.382q1.409-2.272 2.788-4.56.624-1.008 1.241-2.018a218 218 0 0 1 2.48-3.983c-.526.074-1.152.182-1.819.297-1.653.286-3.555.614-4.798.58-1.168-.032-2.345-.242-3.521-.451m-5.061-.75 1.423.205c.954 1.582 1.924 3.155 2.894 4.727l.004.007.026.043c1.36 2.205 2.72 4.41 4.036 6.642a93 93 0 0 0 .025 2.54l-2.837-2.322L7.815 44.39c1.201.017 2.404.013 3.606.01q.762-.004 1.523-.004c.028-1.037.009-2.077.007-3.114m17.043.047-.053.005-.985.151-6.966 11.337-.027 2.615a352 352 0 0 1 3.044-2.455 677 677 0 0 0 10.49-8.591l-5.143.005q.006-.346.023-.713l.001-.021c.032-.758.065-1.56-.087-2.252-.135-.101-.152-.1-.256-.086zm-17.652-4.567-.002.233-.745-1.216a35 35 0 0 0-1.021-1.719 84 84 0 0 1-.466-.759c.434-.815.912-1.613 1.388-2.41l.365-.61q.18-.303.358-.608c.25.38.175 4.295.137 6.296zm17.33 3.879.128-.23c.228-.408.456-.817.75-1.18.027.375 0 .885-.068 1.191-.37.136-.52.184-.81.219m-16.684-1.282c.35.431.606.928.879 1.41-.1-.012-.146-.016-.191-.024-.085-.017-.168-.051-.62-.194a5.2 5.2 0 0 1-.068-1.192" clip-rule="evenodd"/>
      <path stroke="#000" stroke-width=".381" d="m28.768 25.892.017.027c.771 1.248 1.354 2.19 1.562 2.517v9.736l-1.746 2.713c-1.604.214-3.205.456-4.805.698l-1.134.171-.94.14c-1.553-.129-3.129-.383-4.694-.636-.771-.125-1.54-.249-2.303-.358l-1.742-2.857-.019-9.58 8.66-13.799m7.144 11.228-.003-.005-.023-.038c-2.453-3.969-6.75-10.92-7.117-11.185m7.143 11.228c-.613-.992-1.343-2.174-2.1-3.393-2.266-3.652-4.767-7.636-5.043-7.835m8.706 12.54a1517 1517 0 0 1-8.322-13.277q-.01-.834-.031-1.67l-.016-.709c.527.225 1.406.996 2.122 1.625.188.166.365.321.521.454l.107.09.116.095A606 606 0 0 1 36.018 23l.01 20.78-5.039-.003v-2.408l-.007-3.126 3.038-4.88a89 89 0 0 0-1.92-3.212c-.378-.612-.755-1.224-1.122-1.839m-.648-1.108c0-.136-.006-.348-.013-.609m.014.609v-.007c0-.136-.007-.345-.014-.602m0 0v-.043c-.034-1.243-.094-3.503.223-3.836l.027-.026.024-.019.024-.02.28.123c.215.982.163 2.514.117 3.88m0 0-.001.02-.003.083a38 38 0 0 0-.03 1.555m.034-1.658-.009.266c-.016.508-.03.985-.025 1.392M13.676 40.745c.045.008.09.012.191.024-.273-.482-.529-.979-.88-1.41-.026.375 0 .757.07 1.191m.619.195c-.085-.017-.168-.051-.62-.194m.62.194c-.085-.017-.164-.05-.603-.19l-.017-.005M35.23 21.508l.026.02.261.218.21.176.93.773.001 21.595a1271 1271 0 0 1-14.94 12.148c-.318-.031-8.571-6.819-12.763-10.267l-.117-.096c-1.075-.884-1.865-1.533-2.157-1.77l-.014-21.598 14.925-12.23c.487.07 9.804 7.835 13.638 11.03Zm-4.236 8.088c.61.762 1.133 1.696 1.64 2.601q.22.393.437.77.108.188.217.369l-.291.475-.302.49q-.395.64-.795 1.276l-.922 1.496q-.003-1.08-.013-2.161c-.015-1.773-.03-3.549.03-5.316Zm-9.757-18.008.072.062c.145.433.105 1.1.07 1.678-.013.212-.025.412-.027.584l-8.406 13.415q.003-.313.016-.654l.008-.207.017-.407c.043-1.014.088-2.102-.024-2.955-.032-.239-.103-.325-.288-.465l-.194.037c-.294.457-.21 3.286-.164 4.827l.013.477q.006.211.008.343a359 359 0 0 0-2.986 4.97l2.992 4.906-.013 2.806-.01 2.777-5.024-.008.02-20.761c2.992-2.582 6.079-5.073 9.162-7.562a696 696 0 0 0 4.758-3.863Zm-3.225 30.445c-.945-.169-1.89-.337-2.83-.413l.727 1.166c1.937 3.11 3.88 6.227 5.732 9.382q1.409-2.272 2.788-4.56.624-1.008 1.241-2.018a218 218 0 0 1 2.48-3.983c-.526.074-1.152.182-1.819.297-1.653.286-3.555.614-4.798.58-1.168-.032-2.345-.242-3.521-.451Zm-5.061-.75 1.423.205c.954 1.582 1.924 3.155 2.894 4.727l.004.007.026.043c1.36 2.205 2.72 4.41 4.036 6.642a93 93 0 0 0 .025 2.54l-2.837-2.322L7.815 44.39c1.201.017 2.404.013 3.606.01q.762-.004 1.523-.004c.028-1.037.009-2.077.007-3.114Zm17.043.047-.053.005-.985.151-6.966 11.337-.027 2.615a352 352 0 0 1 3.044-2.455 677 677 0 0 0 10.49-8.591l-5.143.005q.006-.346.023-.713l.001-.021c.032-.758.065-1.56-.087-2.252-.135-.101-.152-.1-.256-.086zm-17.652-4.567-.002.233-.745-1.216a35 35 0 0 0-1.021-1.719 84 84 0 0 1-.466-.759c.434-.815.912-1.613 1.388-2.41l.365-.61q.18-.303.358-.608c.25.38.175 4.295.137 6.296zm17.33 3.879.128-.23c.228-.408.456-.817.75-1.18.027.375 0 .885-.068 1.191-.37.136-.52.184-.81.219Z"/>
      <path fill="#000" fill-rule="evenodd" stroke="#000" stroke-width=".381" d="m28.785 25.919-.995-1.61.978 1.582z" clip-rule="evenodd"/>
      <path fill="#000" fill-rule="evenodd" d="M30.33 27.204c0-.14-.006-.363-.014-.636v.014c.008.266.014.484.014.622" clip-rule="evenodd"/>
      <path stroke="#000" stroke-width=".381" d="M30.316 26.582v-.014zm0 0v.013c.008.257.014.466.014.602"/>
      <path fill="#000" fill-rule="evenodd" stroke="#000" stroke-width=".381" d="m12.968 26.523-.006.15zm-.63 1.799c-.002-.174-.01-.462-.021-.82l.013.476q.006.211.007.344Z" clip-rule="evenodd"/>
      <path fill="#000" fill-rule="evenodd" d="M30.357 44.25q.008-.287.021-.588l-.001.021q-.013.29-.02.567" clip-rule="evenodd"/>
      <path stroke="#000" stroke-width=".381" d="m30.377 43.683.001-.021q-.013.3-.02.588.006-.278.019-.567Zm0 0-.014.369-.005.184"/>
      <path fill="#000" fill-rule="evenodd" stroke="#000" stroke-width=".381" d="M12.219 29.673q-.214.368-.432.733l.074-.125q.18-.303.357-.608Zm.12 7.322c0-.245.012-.796.025-1.491l-.009.465c-.009.473-.016.839-.016 1.026Z" clip-rule="evenodd"/>
      <path fill="#000" d="M106.133 53.302v-1.43h1.451q.746 0 1.28-.192.533-.171.896-.618.363-.45.619-1.238l3.797-12.202h1.557l-3.968 12.65q-.34 1.089-.938 1.75a3.4 3.4 0 0 1-1.43.98q-.831.3-1.898.3zm3.67-4.672v-1.345h2.026v1.345zm-.192 0-4.096-11.009h1.642l3.947 11.008zM98.37 48.907V37.62h1.28v4.715h-.128q0-2.475 1.088-3.648 1.088-1.194 3.413-1.195h.363v1.451h-.662q-1.834 0-2.794.96-.96.939-.96 2.773v6.23zM92.836 48.907V33.333h1.6v15.574zm-1.642-14.272v-1.302h3.242v1.302zM84.658 49.27q-1.452 0-2.518-.491-1.065-.513-1.75-1.344a6 6 0 0 1-1.023-1.899 7.3 7.3 0 0 1-.32-2.155v-.298q0-1.089.32-2.134a5.7 5.7 0 0 1 1.024-1.877 4.9 4.9 0 0 1 1.707-1.323q1.045-.512 2.432-.512 1.77 0 2.944.79a5 5 0 0 1 1.792 2.026 5.9 5.9 0 0 1 .597 2.624v.832h-10.09v-1.237h8.98l-.405.619q0-1.26-.448-2.198a3.3 3.3 0 0 0-1.28-1.493q-.831-.555-2.09-.555-1.323 0-2.198.619a3.86 3.86 0 0 0-1.322 1.643q-.427 1.024-.427 2.325 0 1.28.427 2.347a3.8 3.8 0 0 0 1.344 1.664q.917.618 2.304.618 1.47 0 2.389-.661.917-.682 1.13-1.6h1.494a4.3 4.3 0 0 1-.896 1.963q-.683.81-1.728 1.258t-2.39.448M55.588 50.182q-1.45 0-2.517-.49-1.066-.513-1.75-1.344a6 6 0 0 1-1.024-1.9 7.3 7.3 0 0 1-.32-2.154v-.298q0-1.089.32-2.134a5.7 5.7 0 0 1 1.024-1.877 4.9 4.9 0 0 1 1.707-1.323q1.046-.512 2.432-.512 1.77 0 2.944.79a5 5 0 0 1 1.792 2.026 5.9 5.9 0 0 1 .597 2.624v.832h-10.09v-1.237h8.981l-.405.619q0-1.26-.448-2.198a3.3 3.3 0 0 0-1.28-1.493q-.833-.555-2.09-.555-1.324 0-2.198.619a3.86 3.86 0 0 0-1.323 1.643q-.427 1.023-.427 2.325 0 1.28.427 2.347a3.8 3.8 0 0 0 1.344 1.664q.918.618 2.304.618 1.472 0 2.39-.661.917-.683 1.13-1.6h1.493a4.3 4.3 0 0 1-.896 1.963q-.682.81-1.728 1.258-1.044.448-2.389.448M42.411 54.15v-1.429h1.28q.832 0 1.259-.49.447-.47.448-1.366v-12.33h1.536v12.031q0 1.323-.363 2.112a2.1 2.1 0 0 1-1.11 1.131q-.767.34-2.047.341zm1.152-14.336v-1.28h3.37v1.28zm2.133-3.562q-.575 0-.874-.299a1.16 1.16 0 0 1-.278-.79q0-.468.278-.767.298-.32.874-.32t.854.32q.277.298.277.768t-.277.789q-.278.3-.853.299M148.829 32.006q-1.45 0-2.518-.49-1.067-.513-1.749-1.345a6 6 0 0 1-1.024-1.898 7.3 7.3 0 0 1-.32-2.155v-.299q0-1.088.32-2.133a5.8 5.8 0 0 1 1.024-1.877 4.9 4.9 0 0 1 1.707-1.323q1.045-.512 2.432-.512 1.77 0 2.944.79a5 5 0 0 1 1.792 2.026q.597 1.215.597 2.624v.832h-10.091v-1.237h8.982l-.406.618q0-1.258-.448-2.197a3.3 3.3 0 0 0-1.28-1.493q-.831-.555-2.09-.555-1.323 0-2.198.619a3.86 3.86 0 0 0-1.322 1.642q-.427 1.024-.427 2.326 0 1.28.427 2.346a3.8 3.8 0 0 0 1.344 1.664q.917.62 2.304.619 1.472 0 2.389-.661.918-.684 1.131-1.6h1.493a4.3 4.3 0 0 1-.896 1.962 4.6 4.6 0 0 1-1.728 1.259q-1.045.448-2.389.448M134.373 32.006q-1.236 0-2.261-.448a5.6 5.6 0 0 1-1.749-1.28 6.3 6.3 0 0 1-1.131-1.877 6.6 6.6 0 0 1-.384-2.262v-.298q0-1.151.384-2.198a5.9 5.9 0 0 1 1.088-1.877 5.2 5.2 0 0 1 1.728-1.301q1.024-.492 2.283-.491 1.43 0 2.517.619 1.088.619 1.749 1.792.662 1.151.704 2.837l-.704-1.323v-7.83h1.6v15.574h-1.28V26.63h.512q-.042 1.77-.746 2.987-.683 1.194-1.814 1.792-1.109.597-2.496.597m.214-1.408q1.152 0 2.069-.512a3.7 3.7 0 0 0 1.472-1.45q.534-.96.533-2.198v-1.024q0-1.195-.533-2.09a3.74 3.74 0 0 0-1.472-1.43q-.916-.512-2.091-.512-1.258 0-2.197.619a4.03 4.03 0 0 0-1.429 1.642q-.49 1.046-.491 2.347 0 1.344.512 2.39a3.97 3.97 0 0 0 1.451 1.642q.939.576 2.176.576M124.681 31.643v-3.392h-.256v-4.01q0-1.26-.661-1.92-.662-.683-2.048-.683-.64 0-1.302.021a33 33 0 0 0-1.237.064q-.576.022-1.024.064V20.38l.96-.085q.49-.043 1.003-.043.533-.021 1.024-.021 1.728 0 2.773.427 1.066.426 1.557 1.344.492.895.491 2.389v7.253zm-3.819.299q-1.194 0-2.112-.427a3.3 3.3 0 0 1-1.429-1.237q-.49-.81-.491-1.963 0-1.13.512-1.92.534-.789 1.515-1.194 1.003-.427 2.411-.427h3.306v1.216h-3.413q-1.344 0-2.069.661-.705.64-.704 1.686 0 1.066.746 1.706.747.62 2.027.619a4.2 4.2 0 0 0 1.515-.277q.725-.3 1.216-.982.49-.704.533-1.92l.469.662q-.085 1.259-.597 2.112a3.3 3.3 0 0 1-1.387 1.258q-.874.427-2.048.427M97.504 31.643V20.337h1.28v4.757h-.256q0-1.557.427-2.688.449-1.13 1.323-1.75.874-.64 2.218-.64h.064q1.344 0 2.219.62.875.618 1.301 1.749.427 1.13.427 2.71h-.512q0-1.559.427-2.689.447-1.13 1.322-1.75.897-.64 2.24-.64h.064q1.344 0 2.219.62.895.618 1.323 1.749.447 1.13.448 2.71v6.548h-1.6v-6.912q0-1.493-.726-2.368-.725-.874-2.09-.874-1.409 0-2.24.917-.811.896-.811 2.432v6.805h-1.6v-6.912q0-1.493-.725-2.368-.726-.874-2.091-.874-1.408 0-2.24.917-.81.896-.81 2.432v6.805zM87.764 32.006q-1.238 0-2.262-.448a5.6 5.6 0 0 1-1.75-1.28 6.3 6.3 0 0 1-1.13-1.877 6.6 6.6 0 0 1-.384-2.262v-.298q0-1.151.384-2.198a5.9 5.9 0 0 1 1.088-1.877 5.2 5.2 0 0 1 1.728-1.301q1.025-.492 2.283-.491 1.43 0 2.517.619 1.088.619 1.75 1.792.66 1.151.704 2.837l-.704-1.323v-7.83h1.6v15.574h-1.28V26.63h.511q-.042 1.77-.746 2.987-.683 1.194-1.813 1.792-1.11.597-2.497.597m.213-1.408q1.152 0 2.07-.512a3.7 3.7 0 0 0 1.471-1.45q.534-.96.534-2.198v-1.024q0-1.195-.534-2.09a3.74 3.74 0 0 0-1.472-1.43q-.917-.512-2.09-.512-1.26 0-2.198.619a4 4 0 0 0-1.43 1.642q-.49 1.046-.49 2.347 0 1.344.512 2.39a3.97 3.97 0 0 0 1.45 1.642q.94.576 2.177.576M69.806 31.643V20.358h1.28v4.736h-.256q0-1.579.47-2.71.469-1.13 1.407-1.749.94-.618 2.368-.618h.064q2.134 0 3.179 1.344 1.045 1.322 1.045 3.733v6.55h-1.578v-6.891q0-1.472-.811-2.368-.81-.896-2.261-.896-1.494 0-2.411.938-.896.918-.896 2.432v6.784zM64.742 31.643v-3.392h-.256v-4.01q0-1.26-.661-1.92-.662-.683-2.048-.683-.64 0-1.302.021-.64.022-1.237.064-.576.022-1.024.064V20.38l.96-.085q.491-.043 1.003-.043a26 26 0 0 1 1.024-.021q1.728 0 2.773.427 1.066.426 1.557 1.344.492.895.491 2.389v7.253zm-3.819.299q-1.194 0-2.111-.427a3.3 3.3 0 0 1-1.43-1.237q-.49-.81-.49-1.963 0-1.13.511-1.92.534-.789 1.515-1.194 1.003-.427 2.41-.427h3.307v1.216h-3.413q-1.344 0-2.07.661-.703.64-.703 1.686 0 1.066.747 1.706.746.62 2.026.619.789 0 1.515-.277.725-.3 1.216-.982.49-.704.533-1.92l.47.662q-.086 1.259-.598 2.112a3.3 3.3 0 0 1-1.387 1.258q-.874.427-2.047.427M44.545 31.643V16.07h1.6v8.81l-.47.363q0-1.579.449-2.752.47-1.173 1.386-1.813.939-.66 2.347-.661h.085q2.049 0 3.094 1.344 1.066 1.344 1.066 3.733v6.55h-1.578v-6.891q0-1.515-.832-2.39-.833-.874-2.24-.874-1.515 0-2.41.98-.897.96-.897 2.54v6.634zM66.757 48.572l2.239-10.143h2.08l2.595 10.142h-1.288L69.788 38.49h.475l-2.258 10.083zm-.852 0v-1.209h1.803v1.209zm-.356 0-3.031-10.48h1.426l2.991 10.48zm7.17 0v-1.209h1.764v1.209zm.773 0 2.615-10.48h1.367L74.8 48.572z"/>
    </symbol>
  </defs>
</svg>
