<svg xmlns="http://www.w3.org/2000/svg" width="202" height="63" fill="none">
  <path fill="#000" fill-rule="evenodd" d="m38.997 15.231.036.03.354.295.285.237 1.26 1.049.002 29.289a1724.04 1724.04 0 0 1-20.263 16.475c-.431-.043-11.624-9.248-17.31-13.925l-.158-.13C1.745 47.352.674 46.47.278 46.15l-.02-29.293L20.501.27c.66.094 13.297 10.626 18.496 14.96Zm-8.74 5.984-.024-.037-.003-.006-.032-.05c-3.327-5.384-9.154-14.812-9.653-15.17L8.8 24.667l.027 12.992 2.361 3.875c1.035.148 2.078.316 3.124.485 2.123.343 4.26.689 6.367.864l1.274-.19 1.537-.232c2.171-.329 4.343-.657 6.517-.948l2.37-3.68-.001-13.203c-.283-.443-1.072-1.721-2.119-3.415Zm2.995 4.987c.827 1.033 1.537 2.3 2.225 3.527.199.354.395.704.592 1.045.098.17.196.336.294.5l-.394.643-.41.666c-.357.578-.716 1.155-1.078 1.73l-1.25 2.029c-.002-.976-.01-1.953-.018-2.93-.02-2.405-.04-4.814.04-7.21ZM23.881 3.93c-.972-.854-2.163-1.9-2.878-2.205l.021.962c.018.755.036 1.51.042 2.265a2055.694 2055.694 0 0 0 11.287 18.006c-.001-.184-.01-.472-.02-.825V22.075c-.044-1.686-.126-4.752.304-5.203a.337.337 0 0 1 .037-.035l.032-.026.032-.026.38.166c.291 1.332.221 3.41.158 5.26v.028l-.004.113a50.768 50.768 0 0 0-.042 2.11c.499.834 1.01 1.664 1.523 2.494.889 1.441 1.779 2.884 2.604 4.357l-4.12 6.616.01 4.241v3.265l6.833.004-.014-28.181A820.925 820.925 0 0 0 24.89 4.796l-.157-.129-.145-.122c-.212-.18-.452-.391-.707-.615Zm-3.862-2.151.098.084c.197.586.142 1.491.095 2.275-.018.287-.034.559-.037.792l-11.4 18.193c.003-.28.01-.578.022-.885l.01-.282.023-.551c.058-1.375.12-2.852-.032-4.008-.043-.324-.14-.441-.39-.63l-.264.05c-.399.619-.284 4.455-.222 6.546l.018.646c.005.19.009.347.01.465a487.125 487.125 0 0 0-4.05 6.742l4.058 6.653-.017 3.805-.014 3.766-6.813-.01.026-28.157c4.059-3.502 8.245-6.88 12.427-10.256a943.135 943.135 0 0 0 6.452-5.238Zm-4.374 41.29c-1.282-.229-2.563-.457-3.837-.56l.986 1.582c2.627 4.216 5.26 8.444 7.773 12.724a570.406 570.406 0 0 0 3.782-6.186c.564-.91 1.124-1.823 1.683-2.736a295.088 295.088 0 0 1 3.363-5.402c-.714.101-1.563.248-2.466.404-2.243.386-4.822.832-6.509.786-1.583-.044-3.18-.328-4.775-.612ZM8.781 42.05l1.93.279a728.53 728.53 0 0 0 3.926 6.411l.005.01.035.057c1.845 2.99 3.69 5.982 5.473 9.01a137.14 137.14 0 0 0 .034 3.444l-3.846-3.15L1.816 46.268c1.63.023 3.26.018 4.891.013.688-.002 1.377-.004 2.065-.004.038-1.407.012-2.817.01-4.225Zm23.116.064-.072.007-1.336.206-9.448 15.376-.037 3.546a479.57 479.57 0 0 1 4.129-3.33A917.66 917.66 0 0 0 39.36 46.268l-6.975.008c.004-.312.017-.637.03-.968l.002-.028c.043-1.029.088-2.117-.118-3.054-.183-.138-.207-.135-.348-.118l-.054.007ZM7.956 35.92l-.003.316-1.01-1.649a47.697 47.697 0 0 0-1.386-2.331c-.212-.343-.424-.686-.632-1.029.59-1.106 1.237-2.188 1.884-3.268l.494-.828c.163-.274.326-.549.486-.824.338.514.237 5.824.185 8.538-.008.436-.015.804-.018 1.076Zm23.502 5.261.176-.313c.308-.552.618-1.107 1.017-1.599.036.508-.001 1.2-.093 1.616-.5.184-.704.25-1.1.296ZM8.832 39.444c.475.585.822 1.259 1.192 1.912-.136-.016-.198-.021-.26-.033-.115-.022-.226-.069-.84-.263-.092-.59-.129-1.108-.092-1.616Z" clip-rule="evenodd"/>
  <path stroke="#000" stroke-width=".517" d="m30.233 21.178.023.037c1.047 1.694 1.836 2.972 2.119 3.415l.001 13.203-2.37 3.68c-2.174.291-4.346.62-6.517.948l-1.537.232-1.274.19c-2.107-.175-4.244-.52-6.367-.864-1.046-.169-2.09-.337-3.123-.485L8.825 37.66l-.027-12.992L20.545 5.952m9.688 15.226-.003-.006-.032-.05c-3.327-5.384-9.154-14.812-9.653-15.17m9.688 15.226c-.83-1.344-1.821-2.948-2.847-4.601-3.074-4.952-6.466-10.356-6.84-10.625m11.807 17.006A2055.694 2055.694 0 0 1 21.066 4.952c-.006-.755-.024-1.51-.041-2.265l-.022-.962c.715.305 1.906 1.351 2.878 2.205.255.224.495.435.707.615l.145.122.157.13a820.925 820.925 0 0 1 15.175 12.46l.015 28.182-6.834-.004V42.17l-.01-4.24 4.12-6.617c-.824-1.473-1.714-2.916-2.604-4.357-.512-.83-1.023-1.66-1.522-2.494m-.877-1.504c-.001-.184-.01-.472-.02-.825m.02.825v-.009c0-.184-.01-.468-.02-.816m0 0V22.075c-.044-1.686-.126-4.752.304-5.203a.337.337 0 0 1 .037-.035l.032-.026.032-.026.38.166c.291 1.332.221 3.41.158 5.26m0 0v.028l-.004.113a50.768 50.768 0 0 0-.042 2.11m.047-2.25-.012.36c-.022.69-.041 1.337-.035 1.89M9.765 41.323c.06.012.123.017.259.033-.37-.653-.717-1.327-1.192-1.912-.037.508 0 1.026.092 1.616m.84.263c-.115-.022-.226-.069-.84-.263m.84.263c-.114-.022-.222-.067-.817-.256l-.023-.007M38.997 15.23l.036.03.354.295.285.237 1.26 1.049.002 29.289a1724.04 1724.04 0 0 1-20.263 16.475c-.431-.043-11.624-9.248-17.31-13.925l-.158-.13C1.745 47.352.674 46.47.278 46.15l-.02-29.293L20.501.27c.66.094 13.297 10.626 18.496 14.96Zm-5.745 10.97c.827 1.034 1.537 2.301 2.225 3.529.199.353.395.703.592 1.044.098.17.196.336.294.5l-.394.643-.41.666c-.357.578-.716 1.155-1.078 1.73l-1.25 2.029c-.002-.976-.01-1.953-.018-2.93-.02-2.405-.04-4.814.04-7.21ZM20.02 1.78l.098.084c.197.586.142 1.491.095 2.275-.018.287-.034.559-.037.792l-11.4 18.193c.003-.28.01-.578.022-.885l.01-.282.023-.551c.058-1.375.12-2.852-.032-4.008-.043-.324-.14-.441-.39-.63l-.264.05c-.399.619-.284 4.455-.222 6.546l.018.646c.005.19.009.347.01.465a487.125 487.125 0 0 0-4.05 6.742l4.058 6.653-.017 3.805-.014 3.766-6.813-.01.026-28.157c4.059-3.502 8.245-6.88 12.427-10.256a943.135 943.135 0 0 0 6.452-5.238Zm-4.374 41.29c-1.282-.229-2.563-.457-3.837-.56l.986 1.582c2.627 4.216 5.26 8.444 7.773 12.724a570.406 570.406 0 0 0 3.782-6.186c.564-.91 1.124-1.823 1.683-2.736a295.088 295.088 0 0 1 3.363-5.402c-.714.101-1.563.248-2.466.404-2.243.386-4.822.832-6.509.786-1.583-.044-3.18-.328-4.775-.612ZM8.781 42.05l1.93.279a728.53 728.53 0 0 0 3.926 6.411l.005.01.035.057c1.845 2.99 3.69 5.982 5.473 9.01a137.14 137.14 0 0 0 .034 3.444l-3.846-3.15L1.816 46.268c1.63.023 3.26.018 4.891.013.688-.002 1.377-.004 2.065-.004.038-1.407.012-2.817.01-4.225Zm23.116.064-.072.007-1.336.206-9.448 15.376-.037 3.546a479.57 479.57 0 0 1 4.129-3.33A917.66 917.66 0 0 0 39.36 46.268l-6.975.008c.004-.312.017-.637.03-.968l.002-.028c.043-1.029.088-2.117-.118-3.054-.183-.138-.207-.135-.348-.118l-.054.007ZM7.956 35.92l-.003.316-1.01-1.649a47.652 47.652 0 0 0-1.386-2.331c-.212-.343-.424-.686-.632-1.029.59-1.106 1.237-2.188 1.884-3.268l.494-.828c.163-.274.326-.549.486-.824.338.514.237 5.824.185 8.538-.008.436-.015.804-.018 1.076Zm23.502 5.261.176-.313c.308-.552.618-1.107 1.017-1.599.036.508-.001 1.2-.093 1.616-.5.184-.704.25-1.1.296Z"/>
  <path fill="#000" fill-rule="evenodd" stroke="#000" stroke-width=".517" d="m30.256 21.215-1.349-2.182 1.326 2.145.023.037Z" clip-rule="evenodd"/>
  <path fill="#000" fill-rule="evenodd" d="M32.352 22.958c0-.19-.009-.492-.019-.861v.018c.01.362.018.656.019.843Z" clip-rule="evenodd"/>
  <path stroke="#000" stroke-width=".517" d="M32.333 22.115v-.018c.01.37.018.671.019.861 0-.187-.009-.481-.019-.843Zm0 0v.018c.01.348.019.632.019.817"/>
  <path fill="#000" fill-rule="evenodd" stroke="#000" stroke-width=".517" d="M8.804 22.035a39.012 39.012 0 0 0-.007.203l.007-.203Zm-.855 2.44a61.199 61.199 0 0 0-.028-1.112l.018.646c.006.19.01.348.01.466Z" clip-rule="evenodd"/>
  <path fill="#000" fill-rule="evenodd" d="M32.389 46.077c.006-.26.017-.526.028-.798l-.001.029c-.011.262-.021.518-.027.769Z" clip-rule="evenodd"/>
  <path stroke="#000" stroke-width=".517" d="m32.416 45.308.001-.029c-.01.272-.022.539-.028.798.005-.25.016-.507.027-.769Zm0 0c-.008.169-.014.335-.02.5l-.007.25"/>
  <path fill="#000" fill-rule="evenodd" stroke="#000" stroke-width=".517" d="M7.788 26.308a95.43 95.43 0 0 1-.586.994l.1-.17c.164-.274.326-.549.486-.824Zm.164 9.93c0-.332.016-1.08.034-2.023l-.012.631a98.59 98.59 0 0 0-.022 1.392Z" clip-rule="evenodd"/>
  <path fill="#000" d="M135.16 58.354v-1.939h1.967c.676 0 1.254-.086 1.736-.26a2.526 2.526 0 0 0 1.216-.84c.328-.404.607-.964.839-1.677l5.15-16.55h2.112l-5.382 17.157c-.308.984-.733 1.775-1.273 2.373a4.611 4.611 0 0 1-1.938 1.33c-.753.27-1.611.406-2.575.406h-1.852Zm4.976-6.337v-1.822h2.749v1.822h-2.749Zm-.26 0-5.555-14.93h2.228l5.352 14.93h-2.025ZM124.631 52.393V37.088h1.736v6.394h-.174c0-2.238.492-3.887 1.476-4.948.984-1.08 2.527-1.62 4.629-1.62h.492v1.968h-.897c-1.659 0-2.922.434-3.79 1.302-.868.848-1.302 2.102-1.302 3.76v8.45h-2.17ZM117.126 52.394V31.273h2.17v21.12h-2.17Zm-2.228-19.357v-1.764h4.398v1.764h-4.398ZM106.034 52.885c-1.312 0-2.45-.222-3.415-.666-.964-.463-1.755-1.07-2.372-1.822a8.126 8.126 0 0 1-1.389-2.575 9.93 9.93 0 0 1-.434-2.923v-.405c0-.984.145-1.948.434-2.893a7.786 7.786 0 0 1 1.389-2.546 6.68 6.68 0 0 1 2.315-1.794c.945-.463 2.044-.695 3.298-.695 1.601 0 2.932.357 3.993 1.07 1.08.715 1.89 1.63 2.43 2.75.54 1.1.81 2.285.81 3.558v1.129H99.408v-1.678h12.181l-.55.839c0-1.138-.202-2.132-.608-2.98-.385-.868-.964-1.543-1.736-2.026-.752-.501-1.697-.752-2.835-.752-1.196 0-2.189.28-2.98.84a5.24 5.24 0 0 0-1.794 2.227c-.386.926-.579 1.977-.579 3.154 0 1.157.193 2.218.579 3.182.405.946 1.013 1.698 1.823 2.257.829.56 1.871.84 3.125.84 1.331 0 2.411-.3 3.24-.898.83-.617 1.341-1.34 1.534-2.17h2.025c-.193 1.023-.598 1.91-1.215 2.662-.618.733-1.399 1.302-2.344 1.707-.945.405-2.025.608-3.24.608ZM66.608 54.123c-1.312 0-2.45-.222-3.414-.665-.965-.463-1.755-1.07-2.373-1.823a8.124 8.124 0 0 1-1.388-2.575 9.926 9.926 0 0 1-.434-2.922v-.406c0-.983.144-1.948.434-2.893a7.783 7.783 0 0 1 1.389-2.546 6.68 6.68 0 0 1 2.314-1.794c.945-.463 2.045-.694 3.298-.694 1.602 0 2.932.356 3.993 1.07 1.08.714 1.89 1.63 2.43 2.749.54 1.1.81 2.286.81 3.559v1.128H59.983v-1.678h12.181l-.55.839c0-1.138-.202-2.131-.607-2.98-.386-.868-.965-1.543-1.736-2.025-.752-.502-1.697-.753-2.835-.753-1.196 0-2.19.28-2.98.84a5.24 5.24 0 0 0-1.794 2.227c-.386.926-.58 1.977-.58 3.154 0 1.157.194 2.218.58 3.183.405.945 1.012 1.697 1.822 2.256.83.56 1.871.84 3.125.84 1.331 0 2.411-.3 3.24-.897.83-.618 1.341-1.341 1.534-2.17h2.025c-.192 1.022-.597 1.91-1.215 2.661-.617.733-1.398 1.302-2.343 1.708-.946.405-2.026.607-3.24.607ZM48.737 59.505v-1.939h1.736c.752 0 1.321-.222 1.707-.665.405-.425.608-1.042.608-1.852V38.325h2.083v16.319c0 1.196-.164 2.15-.492 2.864a2.857 2.857 0 0 1-1.505 1.534c-.694.308-1.62.463-2.777.463h-1.36Zm1.562-19.444v-1.736h4.572v1.736h-4.572Zm2.894-4.831c-.521 0-.917-.136-1.187-.405-.25-.29-.376-.647-.376-1.071 0-.424.126-.772.376-1.042.27-.289.666-.434 1.187-.434.52 0 .906.145 1.157.434.25.27.376.618.376 1.042 0 .424-.125.781-.376 1.07-.25.27-.636.406-1.157.406ZM193.066 29.472c-1.312 0-2.45-.222-3.414-.666-.965-.463-1.756-1.07-2.373-1.823a8.14 8.14 0 0 1-1.389-2.575 9.939 9.939 0 0 1-.434-2.922v-.405c0-.984.145-1.948.434-2.893a7.798 7.798 0 0 1 1.389-2.546 6.68 6.68 0 0 1 2.315-1.794c.945-.463 2.044-.695 3.298-.695 1.601 0 2.932.357 3.993 1.07 1.08.714 1.89 1.63 2.43 2.75.541 1.099.811 2.285.811 3.558v1.129H186.44v-1.678h12.181l-.55.839c0-1.138-.202-2.132-.607-2.98-.386-.869-.965-1.544-1.736-2.026-.753-.501-1.698-.752-2.836-.752-1.196 0-2.189.28-2.98.839a5.24 5.24 0 0 0-1.794 2.228c-.386.926-.578 1.977-.578 3.154 0 1.157.192 2.218.578 3.182.405.945 1.013 1.698 1.823 2.257.829.56 1.871.84 3.125.84 1.331 0 2.411-.3 3.24-.898.83-.617 1.341-1.34 1.534-2.17h2.025c-.193 1.022-.598 1.91-1.215 2.662-.617.733-1.398 1.302-2.344 1.707-.945.405-2.025.608-3.24.608ZM173.461 29.472c-1.119 0-2.141-.203-3.067-.608a7.537 7.537 0 0 1-2.373-1.736 8.528 8.528 0 0 1-1.533-2.546 8.99 8.99 0 0 1-.521-3.067v-.405c0-1.042.174-2.035.521-2.98a7.951 7.951 0 0 1 1.475-2.546 7.026 7.026 0 0 1 2.344-1.765c.926-.444 1.958-.666 3.096-.666 1.292 0 2.43.28 3.414.84.984.559 1.775 1.369 2.373 2.43.598 1.041.916 2.324.954 3.848l-.954-1.794V7.858h2.17V28.98h-1.736v-6.8h.694c-.039 1.601-.376 2.952-1.013 4.051-.617 1.08-1.437 1.89-2.459 2.43-1.003.54-2.131.81-3.385.81Zm.289-1.91c1.042 0 1.977-.232 2.807-.694a5.024 5.024 0 0 0 1.996-1.968c.482-.868.723-1.861.723-2.98v-1.389c0-1.08-.241-2.025-.723-2.835a5.08 5.08 0 0 0-1.996-1.939c-.83-.463-1.775-.694-2.836-.694-1.138 0-2.131.28-2.98.839-.829.54-1.476 1.283-1.938 2.228-.444.945-.666 2.006-.666 3.182 0 1.216.232 2.296.694 3.24.463.946 1.119 1.689 1.968 2.229.849.52 1.832.781 2.951.781ZM160.315 28.98v-4.6h-.347v-5.44c0-1.138-.299-2.006-.897-2.604-.598-.617-1.523-.925-2.777-.925-.579 0-1.167.01-1.765.029-.579.019-1.138.048-1.678.086-.521.02-.984.049-1.389.087v-1.91c.424-.038.858-.077 1.302-.115.444-.039.897-.058 1.36-.058.482-.02.945-.029 1.389-.029 1.562 0 2.816.193 3.761.579.964.385 1.668.993 2.112 1.822.444.81.665 1.89.665 3.241v9.837h-1.736Zm-5.179.405c-1.08 0-2.035-.193-2.864-.578-.829-.386-1.476-.945-1.939-1.678-.443-.733-.665-1.62-.665-2.662 0-1.023.231-1.89.694-2.604.483-.714 1.167-1.254 2.055-1.62.906-.386 1.996-.58 3.269-.58h4.485v1.65h-4.63c-1.215 0-2.15.299-2.806.897-.637.579-.955 1.34-.955 2.286 0 .964.338 1.736 1.013 2.314.675.56 1.591.84 2.748.84.714 0 1.399-.126 2.055-.377.656-.27 1.205-.713 1.649-1.33.444-.637.685-1.505.723-2.605l.637.897c-.077 1.138-.347 2.093-.81 2.865a4.465 4.465 0 0 1-1.881 1.707c-.791.386-1.717.578-2.778.578ZM123.457 28.98V13.645h1.736v6.452h-.347c0-1.408.193-2.623.578-3.646.405-1.022 1.003-1.813 1.794-2.372.791-.579 1.794-.868 3.009-.868h.087c1.215 0 2.218.28 3.009.839.791.56 1.379 1.35 1.765 2.372.386 1.023.579 2.248.579 3.675h-.695c0-1.408.193-2.623.579-3.646.405-1.022 1.003-1.813 1.794-2.372.81-.579 1.823-.868 3.038-.868h.087c1.215 0 2.218.28 3.009.839.81.56 1.408 1.35 1.794 2.372.405 1.023.607 2.248.607 3.675v8.883h-2.17v-9.375c0-1.35-.328-2.42-.984-3.211-.655-.791-1.601-1.187-2.835-1.187-1.273 0-2.286.415-3.038 1.244-.733.81-1.099 1.91-1.099 3.299v9.23h-2.17v-9.375c0-1.35-.328-2.42-.984-3.211-.656-.791-1.601-1.187-2.836-1.187-1.273 0-2.285.415-3.038 1.244-.733.81-1.099 1.91-1.099 3.299v9.23h-2.17ZM110.246 29.472c-1.119 0-2.141-.203-3.067-.608a7.544 7.544 0 0 1-2.372-1.736 8.552 8.552 0 0 1-1.534-2.546 8.99 8.99 0 0 1-.521-3.067v-.405c0-1.042.174-2.035.521-2.98a7.935 7.935 0 0 1 1.476-2.546 7.032 7.032 0 0 1 2.343-1.765c.926-.444 1.958-.666 3.096-.666 1.293 0 2.431.28 3.414.84.984.559 1.775 1.369 2.373 2.43.598 1.041.916 2.324.955 3.848l-.955-1.794V7.858h2.17V28.98h-1.736v-6.8h.694c-.038 1.601-.376 2.952-1.012 4.051-.618 1.08-1.437 1.89-2.46 2.43-1.003.54-2.131.81-3.385.81Zm.289-1.91c1.042 0 1.977-.232 2.807-.694a5.018 5.018 0 0 0 1.996-1.968c.483-.868.724-1.861.724-2.98v-1.389c0-1.08-.241-2.025-.724-2.835a5.073 5.073 0 0 0-1.996-1.939c-.83-.463-1.775-.694-2.836-.694-1.138 0-2.131.28-2.98.839-.829.54-1.475 1.283-1.938 2.228-.444.945-.666 2.006-.666 3.182 0 1.216.232 2.296.695 3.24.463.946 1.118 1.689 1.967 2.229.849.52 1.833.781 2.951.781ZM85.891 28.98V13.674h1.736v6.423h-.347c0-1.427.212-2.652.636-3.675.425-1.022 1.061-1.813 1.91-2.372.849-.56 1.92-.84 3.212-.84h.087c1.928 0 3.365.608 4.31 1.824.946 1.196 1.418 2.883 1.418 5.063v8.883h-2.14v-9.346c0-1.33-.367-2.401-1.1-3.212-.733-.81-1.755-1.215-3.067-1.215-1.35 0-2.44.425-3.27 1.273-.81.83-1.215 1.93-1.215 3.299v9.2h-2.17ZM79.023 28.98v-4.6h-.347v-5.44c0-1.138-.299-2.006-.897-2.604-.598-.617-1.524-.925-2.777-.925-.579 0-1.167.01-1.765.029-.579.019-1.138.048-1.678.086-.521.02-.984.049-1.39.087v-1.91c.425-.038.86-.077 1.303-.115.443-.039.897-.058 1.36-.058.482-.02.945-.029 1.389-.029 1.562 0 2.816.193 3.76.579.965.385 1.67.993 2.113 1.822.444.81.665 1.89.665 3.241v9.837h-1.736Zm-5.179.405c-1.08 0-2.035-.193-2.864-.578-.83-.386-1.476-.945-1.939-1.678-.443-.733-.665-1.62-.665-2.662 0-1.023.231-1.89.694-2.604.483-.714 1.167-1.254 2.055-1.62.906-.386 1.996-.58 3.27-.58h4.484v1.65h-4.63c-1.215 0-2.15.299-2.806.897-.637.579-.955 1.34-.955 2.286 0 .964.338 1.736 1.013 2.314.675.56 1.591.84 2.748.84.714 0 1.399-.126 2.055-.377.656-.27 1.205-.713 1.649-1.33.444-.637.685-1.505.723-2.605l.637.897c-.077 1.138-.347 2.093-.81 2.865a4.464 4.464 0 0 1-1.881 1.707c-.79.386-1.717.578-2.778.578ZM51.631 28.98V7.858h2.17v11.95l-.637.492c0-1.428.203-2.672.608-3.733.424-1.06 1.051-1.88 1.88-2.459.85-.598 1.91-.897 3.183-.897h.116c1.852 0 3.25.608 4.196 1.823.964 1.215 1.446 2.903 1.446 5.063v8.883h-2.141v-9.346c0-1.37-.376-2.45-1.128-3.24-.753-.791-1.765-1.186-3.038-1.186-1.37 0-2.46.443-3.27 1.33-.81.868-1.215 2.016-1.215 3.444v8.998h-2.17ZM81.756 51.939l3.036-13.756h2.821l3.52 13.756h-1.747l-3.52-13.675h.645L83.45 51.939h-1.693Zm-1.155 0V50.3h2.445v1.639H80.6Zm-.484 0-4.11-14.212h1.934l4.057 14.212h-1.88Zm9.726 0V50.3h2.391v1.639h-2.391Zm1.048 0 3.546-14.212h1.854l-3.627 14.212h-1.773Z"/>
</svg>
